<svg width="120" height="120" viewBox="0 0 120 120" fill="none" xmlns="http://www.w3.org/2000/svg">
  <defs>
    <linearGradient id="pastaGradient" x1="0%" y1="0%" x2="100%" y2="100%">
      <stop offset="0%" style="stop-color:#FFD700;stop-opacity:1" />
      <stop offset="100%" style="stop-color:#DAA520;stop-opacity:1" />
    </linearGradient>
    <linearGradient id="sauceGradient" x1="0%" y1="0%" x2="100%" y2="100%">
      <stop offset="0%" style="stop-color:#ff4500;stop-opacity:1" />
      <stop offset="100%" style="stop-color:#ff6347;stop-opacity:1" />
    </linearGradient>
  </defs>
  <!-- Pasta spirals -->
  <path d="M30 20 Q40 15 50 20 Q60 15 70 20 Q80 15 90 20 Q80 30 70 20 Q60 30 50 20 Q40 30 30 20" fill="url(#pastaGradient)" stroke="#8B4513" stroke-width="2"/>
  <path d="M25 35 Q35 30 45 35 Q55 30 65 35 Q75 30 85 35 Q75 45 65 35 Q55 45 45 35 Q35 45 25 35" fill="url(#pastaGradient)" stroke="#8B4513" stroke-width="2"/>
  <path d="M20 50 Q30 45 40 50 Q50 45 60 50 Q70 45 80 50 Q70 60 60 50 Q50 60 40 50 Q30 60 20 50" fill="url(#pastaGradient)" stroke="#8B4513" stroke-width="2"/>
  <path d="M25 65 Q35 60 45 65 Q55 60 65 65 Q75 60 85 65 Q75 75 65 65 Q55 75 45 65 Q35 75 25 65" fill="url(#pastaGradient)" stroke="#8B4513" stroke-width="2"/>
  <!-- Sauce -->
  <ellipse cx="60" cy="50" rx="40" ry="25" fill="url(#sauceGradient)" opacity="0.7"/>
  <!-- Meatballs -->
  <circle cx="40" cy="40" r="8" fill="#8B4513"/>
  <circle cx="70" cy="45" r="8" fill="#8B4513"/>
  <circle cx="50" cy="60" r="8" fill="#8B4513"/>
  <circle cx="80" cy="65" r="8" fill="#8B4513"/>
  <!-- Basil leaves -->
  <path d="M35 30 Q40 25 45 30" stroke="#00ff00" stroke-width="3" fill="none"/>
  <path d="M65 35 Q70 30 75 35" stroke="#00ff00" stroke-width="3" fill="none"/>
  <path d="M45 70 Q50 65 55 70" stroke="#00ff00" stroke-width="3" fill="none"/>
  <!-- Parmesan cheese -->
  <circle cx="30" cy="50" r="2" fill="#ffff00"/>
  <circle cx="50" cy="30" r="2" fill="#ffff00"/>
  <circle cx="70" cy="70" r="2" fill="#ffff00"/>
  <circle cx="90" cy="50" r="2" fill="#ffff00"/>
  <circle cx="60" cy="80" r="2" fill="#ffff00"/>
</svg>
