<svg width="120" height="120" viewBox="0 0 120 120" fill="none" xmlns="http://www.w3.org/2000/svg">
  <defs>
    <linearGradient id="riceGradient" x1="0%" y1="0%" x2="100%" y2="100%">
      <stop offset="0%" style="stop-color:#F5F5DC;stop-opacity:1" />
      <stop offset="100%" style="stop-color:#DEB887;stop-opacity:1" />
    </linearGradient>
    <linearGradient id="seaweedGradient" x1="0%" y1="0%" x2="100%" y2="100%">
      <stop offset="0%" style="stop-color:#2F4F2F;stop-opacity:1" />
      <stop offset="100%" style="stop-color:#1C3A1C;stop-opacity:1" />
    </linearGradient>
  </defs>
  <!-- Sushi roll 1 -->
  <ellipse cx="40" cy="30" rx="18" ry="12" fill="url(#riceGradient)" stroke="#8B4513" stroke-width="2"/>
  <ellipse cx="40" cy="30" rx="15" ry="9" fill="#ff0000"/>
  <rect x="25" y="25" width="30" height="3" fill="url(#seaweedGradient)"/>
  
  <!-- Sushi roll 2 -->
  <ellipse cx="80" cy="30" rx="18" ry="12" fill="url(#riceGradient)" stroke="#8B4513" stroke-width="2"/>
  <ellipse cx="80" cy="30" rx="15" ry="9" fill="#ffa500"/>
  <rect x="65" y="25" width="30" height="3" fill="url(#seaweedGradient)"/>
  
  <!-- Sushi roll 3 -->
  <ellipse cx="40" cy="70" rx="18" ry="12" fill="url(#riceGradient)" stroke="#8B4513" stroke-width="2"/>
  <ellipse cx="40" cy="70" rx="15" ry="9" fill="#ff69b4"/>
  <rect x="25" y="65" width="30" height="3" fill="url(#seaweedGradient)"/>
  
  <!-- Sushi roll 4 -->
  <ellipse cx="80" cy="70" rx="18" ry="12" fill="url(#riceGradient)" stroke="#8B4513" stroke-width="2"/>
  <ellipse cx="80" cy="70" rx="15" ry="9" fill="#32cd32"/>
  <rect x="65" y="65" width="30" height="3" fill="url(#seaweedGradient)"/>
  
  <!-- Wasabi -->
  <circle cx="60" cy="50" r="4" fill="#00ff00"/>
  <circle cx="60" cy="50" r="2" fill="#228b22"/>
  
  <!-- Ginger -->
  <ellipse cx="20" cy="50" rx="6" ry="3" fill="#ffb6c1"/>
  <ellipse cx="100" cy="50" rx="6" ry="3" fill="#ffb6c1"/>
  
  <!-- Soy sauce drops -->
  <circle cx="30" cy="40" r="2" fill="#8B4513" opacity="0.7"/>
  <circle cx="90" cy="40" r="2" fill="#8B4513" opacity="0.7"/>
  <circle cx="30" cy="80" r="2" fill="#8B4513" opacity="0.7"/>
  <circle cx="90" cy="80" r="2" fill="#8B4513" opacity="0.7"/>
</svg>
